<?xml version="1.0" encoding="utf-8"?>
<!-- Generator: Adobe Illustrator 27.8.0, SVG Export Plug-In . SVG Version: 6.00 Build 0)  -->
<svg version="1.1" id="Layer_1" xmlns="http://www.w3.org/2000/svg" xmlns:xlink="http://www.w3.org/1999/xlink" x="0px" y="0px"
	 viewBox="0 0 131 131" style="enable-background:new 0 0 131 131;" xml:space="preserve">
<style type="text/css">
	.st0{fill:#1750AC;}
	.st1{fill:#FFFFFF;}
</style>
<g id="Group_56" transform="translate(-1742 -3382)">
	<path id="Rectangle_32" class="st0" d="M1807.5,3382L1807.5,3382c36.2,0,65.5,29.3,65.5,65.5l0,0c0,36.2-29.3,65.5-65.5,65.5l0,0
		c-36.2,0-65.5-29.3-65.5-65.5l0,0C1742,3411.3,1771.3,3382,1807.5,3382z"/>
	<g id="Layer_1-2">
		<g>
			<path class="st1" d="M1777.6,3437.6c-0.1-1.6-0.4-2.2-2-2.6c-0.9-0.3-1.8-0.4-2.7-0.5c-2.4-0.2-4.8-0.2-7.1-1
				c-0.7-0.2-1.3-0.5-1.9-1c-1.5-1.3-1.3-3,0-4c1.4-1.1,2.6-2.5,3.9-3.8c1-1,2.2-1.7,3.4-2.6c1.7-1.2,3.4-2.3,5-3.5
				c1.1-0.8,2.4-1.1,3.7-1.4c0,0,0.1,0,0.1,0c1.2,0.2,1.2,0.5,0.7,1.3c-0.3,0.4-0.7,0.8-1.1,1.2c-0.9,0.9-1.8,1.9-2.7,2.8
				c-0.3,0.3-0.7,0.7-1.2,0.9c-1.6,0.7-2.6,1.9-3.8,3.1c-0.6,0.6-1.2,1.2-1.8,1.8c-0.5,0.4-1.1,0.6-1.7,0.9
				c-0.2,0.1-0.6,0.3-0.6,0.4c0,0.3,0.2,0.7,0.4,0.9c0.2,0.2,0.7,0.2,1,0.2c1.7-0.1,3.3,0.3,5,0.6c1.3,0.3,2.7,0.4,4,0.9
				c2.3,0.9,3.9,2.5,3.5,5.3c-0.3,2.2-1.2,4.1-2.7,5.7c-0.7,0.8-1.5,1.6-2.4,2.3c-0.8,0.7-1.8,1.2-2.6,1.8s-1.6,1.3-2.5,1.9
				c-1.1,0.7-2.1,1.4-3.3,1.7c-2.6,0.8-4.8,2.2-6.7,4c-1.3,1.2-2.5,2.4-3.7,3.6c-1.1,1.1-2.5,1.1-3.9,0.6c-0.6-0.2-1.1-1.1-0.9-1.7
				c0.3-0.7,0.7-1.3,1.2-1.9c0.9-1.2,2.4-1.7,3.5-2.6c2.2-1.8,5-2.6,7.3-4.2c1.6-1.1,3.3-2.2,5-3.3c1.4-0.9,2.8-1.8,4.2-2.8
				c1.4-1.1,2.5-2.4,3.2-3.9C1777.5,3438.4,1777.5,3437.9,1777.6,3437.6L1777.6,3437.6z"/>
			<path class="st1" d="M1817.7,3433.5c0.1-2.5,0.2-4.9,0.3-7.4c0-0.5,0.3-1,0.4-1.6c0.1-0.5,0.2-1.1,0.3-1.6
				c0.1-0.8,0.8-1.2,1.4-1.5c1.1-0.5,2.3-0.5,3.5-0.3c1.9,0.3,3.8,0.4,5.5,1.4c1.2,0.8,2.3,1.8,3.4,2.8c1.9,1.8,3.1,4,3.6,6.5
				c0.5,2,0.3,4,0.1,6c0,0.2-0.1,0.4-0.1,0.6c0,1.4-0.9,2.6-2.2,3.1c-3.1,1.3-6.5,2.2-9.7,3.2c-1.3,0.4-2.7,0.5-4.1,0.1
				c-1-0.2-1.4-0.6-1.5-1.7C1818.1,3440,1817.5,3436.8,1817.7,3433.5L1817.7,3433.5z M1822.2,3436.2
				C1822.2,3436.2,1822.2,3436.2,1822.2,3436.2c0.1,0.5,0.1,1,0.1,1.5c0,0.5,0,1,0.2,1.5c0.5,1.7,0.5,1.8,2.1,1.3
				c1.1-0.3,2.2-0.7,3.3-1c1.2-0.4,2.4-0.9,3.5-1.4c1-0.4,1.4-1.2,1.5-2.3c0.2-2.7-0.6-5.1-1.6-7.4c-0.2-0.4-0.5-0.8-0.9-1.2
				c-1.4-1.5-3.2-2.1-5.1-2.5c-1.7-0.4-1.8-0.2-2.3,1.5c0,0.2-0.1,0.4-0.1,0.6C1822.6,3429.8,1822.4,3433,1822.2,3436.2
				L1822.2,3436.2z"/>
			<path class="st1" d="M1787.6,3446.7c0.2-1.6,0.4-2.9,0.4-4.3c0-2.2-0.2-4.5-0.2-6.7c0-1.5,0.1-3,0.2-4.5c0-1.2-0.2-1.4-1.4-1.3
				c-0.6,0-1.2,0.1-1.9,0.1c-0.5,0-0.8-0.2-1-0.7c-0.2-0.6-0.5-1.1-0.7-1.6c-0.5-1.3-0.2-2.1,1-2.9c0.6-0.4,1.3-0.6,2-0.9
				c2.6-1,5.2-2,7.9-2.8c1.9-0.5,3.9-0.7,5.8-0.9c1.3-0.2,2.3,1.2,2.6,2.5c0.2,1.1,0.1,1.2-0.9,1.7c-1.9,0.8-3.9,1.6-5.8,2.4
				c-3.1,1.4-3.8,2.9-3.4,6.5c0.4,4.5,1.2,8.9,1,13.5c-0.1,1.9-1.5,3.6-3.4,3.8c-0.7,0.1-1.3-0.2-1.5-0.8
				C1788,3448.8,1787.8,3447.6,1787.6,3446.7z"/>
			<path class="st1" d="M1784,3483.8c-0.7,0-1.3-0.1-2-0.1c-0.9-0.1-1.6-0.8-1.8-1.8c-0.1-0.7,0-1.5-0.1-2.3c-0.1-1-0.4-2.1-0.5-3.1
				c-0.1-1-0.4-2-0.3-2.9c0.1-2-0.4-4-0.8-5.9c-0.7-3-1-6-0.8-9.1c0.1-1.1,1-2.2,1.9-2.4c1.3-0.2,2.3,0.6,2.7,1.9
				c1.1,3.2,1.3,6.6,1.6,10c0.1,1.3,0.3,2.7,0.4,4c0.2,1.8,0.4,3.6,0.2,5.4c-0.1,0.9,0.1,1.1,1,0.8c2.3-0.8,4.6-1.7,6.7-3.1
				c1.1-0.7,2.3-0.9,3.5-0.6c1.3,0.3,1.9,1.6,1.1,2.7c-0.3,0.5-0.8,0.9-1.3,1.2c-1.3,0.8-2.7,1.5-4.1,2.3c-1.3,0.7-2.5,1.5-3.8,2.2
				C1786.5,3483.3,1785.3,3483.9,1784,3483.8L1784,3483.8z"/>
			<path class="st1" d="M1835.6,3462.7c1.3,2.1,1.8,4.3,2.7,6.3c0.2,0.5,0,1-0.6,1.1c-0.8,0.2-1.7,0.3-2.5,0.3
				c-0.4,0-0.9-0.5-1.1-0.8c-1-1.5-1.3-3.2-1.5-4.9c-0.4-2.7-1.3-5.3-2.1-7.9c-0.6-1.9-1.2-3.9-1.7-5.8c-0.1-0.2-0.1-0.4-0.1-0.6
				c0-0.9,0.3-1.6,0.8-1.7c0.8-0.2,1.9,0.2,2.2,0.9c0.5,1.3,1,2.7,1.5,4c0.1,0.3,0.3,0.5,0.4,0.8c0.3-0.2,0.6-0.4,0.8-0.6
				c1.3-1.7,2.6-3.4,4.6-4.3c0.9-0.4,1.8,0.1,2,1.1c0.3,1.6-0.7,2.5-1.6,3.5c-0.8,0.8-1.6,1.5-2.4,2.3c-0.2,0.2-0.4,0.5-0.5,0.8
				c-0.3,0.5-0.2,0.9,0.3,1.3c1.7,1.3,3.6,2,5.5,2.9c2.3,1,4.7,1.6,7.1,2.2c1.2,0.3,1.5,0.9,1.4,2.1c-0.1,0.5-0.7,1.1-1.4,1.1
				c-1.2,0-2.4,0.1-3.5-0.2c-3.1-1-6.3-2.2-9.2-3.8C1836.4,3462.7,1836.1,3462.8,1835.6,3462.7L1835.6,3462.7z"/>
			<path class="st1" d="M1821.5,3462.9c0.8-0.2,1.5-0.4,2.2-0.7c0.9-0.4,1.8-0.8,2.7-1.3c0.7-0.4,1.5-0.4,2.3-0.2
				c0.3,0.1,0.7,0.4,0.7,0.7c0.1,0.6,0.2,1.3-0.4,1.7c-0.3,0.2-0.5,0.4-0.8,0.5c-1.7,0.9-3.5,1.7-5.2,2.6c-0.4,0.2-0.9,0.4-1.2,0.7
				c-0.3,0.3-0.6,0.8-0.6,1.1c0,1,0.1,2,0.2,3c0.2,1.2,1,1.7,2.1,1.3c1.1-0.4,2.1-1,3.1-1.6c0.8-0.5,1.6-1.2,2.4-1.8
				c1-0.7,2-0.4,3-0.1c0.4,0.1,0.5,0.9,0.1,1.3c-2.1,2.1-4,4.5-6.8,5.8c-2.2,1-5.5,0.1-6.8-1.8c-0.7-1.1-0.8-2.4-0.8-3.7
				c0-3.6,0.1-7.2,0.2-10.8c0-0.1,0-0.2,0-0.3c-0.4-2,0.9-3,2.4-3.7c1.4-0.7,3-1.2,4.5-1.8c0.5-0.2,1-0.4,1.4-0.6
				c0.4-0.1,0.7-0.3,1.1-0.3c1.4-0.1,1.8,0.5,1.9,1.8c0.1,1.5-0.6,2.3-1.9,2.8c-0.6,0.2-1.1,0.5-1.7,0.7c-0.9,0.3-1.8,0.6-2.7,0.8
				c-0.9,0.2-1.1,0.4-1.2,1.3C1821.8,3461.2,1821.6,3462,1821.5,3462.9L1821.5,3462.9z"/>
			<path class="st1" d="M1802.9,3476.5c-0.9-0.1-1.9-0.1-2.8-0.4c-0.7-0.3-1.4-0.9-2-1.4c-0.3-0.2-0.3-0.7-0.4-1.1
				c0-2.2,0-4.4,1.2-6.3c0.1-0.1,0.1-0.2,0.1-0.3c0.3-2.1,1.6-3.4,3.1-4.6c1.2-0.9,2.4-1.9,3.7-2.6c0.7-0.4,1.6-0.1,2.4,0.4
				c1.2,0.7,2.3,1.5,3.5,2.1c1.2,0.6,2.1,1.4,2.8,2.5c0.2,0.3,0.3,0.7,0.3,1c0.2,2.6-0.9,4.7-2.5,6.7c-0.4,0.5-0.8,1-1.3,1.5
				c-0.7,0.7-1.4,1.3-2.5,1.4c-0.6,0.1-1.3,0.3-1.9,0.6C1805.6,3476.4,1804.2,3476.4,1802.9,3476.5L1802.9,3476.5z M1803.9,3472.8
				c0.2,0,0.5-0.1,0.7-0.1c1.2-0.1,2.2-0.7,3.3-1.3c1.6-0.8,2.5-2.2,3.2-3.7c0.2-0.4,0.2-1.2-0.1-1.5c-1-1-2.2-1.5-3.6-1.2
				c-0.7,0.1-1.3,0-2,0c-0.5,0-1-0.1-1.2,0.6c-0.1,0.4-0.4,0.7-0.6,1.1c-0.6,1.1-1.2,2.1-1.7,3.3c-0.7,1.6-0.2,2.6,1.2,2.8
				C1803.4,3472.8,1803.6,3472.8,1803.9,3472.8L1803.9,3472.8z"/>
			<path class="st1" d="M1806,3432.8c0.2,2.5,0.4,5.1,0.6,7.6c0,0.3,0.2,0.8,0.4,0.9c0.5,0.3,1.5,0,1.8-0.4c0.4-0.8,1-1.6,1.1-2.4
				c0.3-2.7,0.4-5.4,0.6-8.1c0-0.4,0-0.7-0.1-1.1c0-0.7,0.3-1.4,1-1.5c0.9-0.2,1.8-0.3,2.7,0.3c0.5,0.3,0.7,0.7,0.7,1.3
				c-0.1,1.5-0.2,3.1-0.3,4.6c-0.1,1.4-0.2,2.7-0.4,4.1c-0.2,1.4-0.4,2.8-0.8,4.1c-0.3,1.1-0.9,2.1-1.6,3c-0.9,1.2-2.3,1.5-3.8,1.1
				c-2.6-0.7-3.9-2.5-4.5-5c-0.8-3.1-0.8-6.2-0.9-9.3c0-0.8-0.1-1.5-0.1-2.3c0-1,0.8-1.8,1.8-1.9c2-0.1,2.2,0.2,2.1,2.2
				c-0.1,0.9,0,1.7,0,2.6C1806.2,3432.8,1806.1,3432.8,1806,3432.8L1806,3432.8z"/>
			<path class="st1" d="M1853.1,3423.4c3.2,0,5.8,1.1,8,3.1c1.1,1,1.1,2.4,0.7,3.8c-0.5,1.8-1.8,3-3.1,4.2c-1.3,1.3-2.9,2.2-4.8,2.5
				c-2,0.3-4,0-5.6-1.3c-1.1-0.9-1.4-2.1-1.2-3.5c0.3-2.7,1.5-5,2.9-7.3C1850.8,3423.6,1851.9,3423.3,1853.1,3423.4L1853.1,3423.4z
				 M1855.5,3427.2C1855.5,3427.2,1855.5,3427.2,1855.5,3427.2c-0.4,0-0.8,0-1.2,0.1c-0.2,0-0.5,0.1-0.7,0.3
				c-1.2,1.4-1.8,3.2-2.4,4.9c-0.1,0.1,0,0.3,0,0.5c0,0.7,0.3,0.9,0.9,0.7c1.3-0.5,2.7-0.8,3.9-1.6c1.4-1,1.9-2.3,2.1-3.8
				c0.1-0.5-0.1-0.7-0.6-0.8C1856.7,3427.3,1856.1,3427.2,1855.5,3427.2L1855.5,3427.2z"/>
			<path class="st1" d="M1843.3,3438.6c0,1.7-0.7,1.9-2.2,2.5c-0.2,0.1-0.7-0.1-0.8-0.2c-0.3-0.5-0.7-1-0.8-1.6
				c-0.8-3.7-1.5-7.4-2.2-11.1c-0.3-1.5-0.5-2.9-0.7-4.4c0-0.2,0.1-0.4,0.2-0.6c0.7-0.7,1.5-1,2.5-0.7c0.8,0.3,1.1,1.1,1.3,1.9
				c0.5,3.1,1,6.2,1.6,9.3c0.2,0.9,0.5,1.8,0.7,2.7C1843,3437.2,1843.1,3437.9,1843.3,3438.6L1843.3,3438.6z"/>
		</g>
	</g>
</g>
</svg>
