<svg xmlns="http://www.w3.org/2000/svg" version="1.1" xmlns:xlink="http://www.w3.org/1999/xlink" width="230.14" height="230.14"><svg id="SvgjsSvg1048" data-name="Layer 2" xmlns="http://www.w3.org/2000/svg" viewBox="0 0 230.14 230.14">
  <g id="SvgjsG1047" data-name="Layer 2">
    <g>
      <path id="SvgjsPath1046" data-name="Rectangle 7" d="m135.24,1.8h0c62.56,11.14,104.24,70.88,93.09,133.44h0c-11.14,62.56-70.88,104.24-133.44,93.09h0C32.34,217.2-9.34,157.45,1.8,94.9h0C12.94,32.34,72.69-9.34,135.24,1.8Z" style="fill: #56af35; stroke-width: 0px;"></path>
      <g>
        <path d="m66.27,113.74c-1.96-.48-3.94-.92-5.89-1.46-2.76-.76-4.46-3.15-4.28-6.25.14-2.27.73-4.52.86-6.79.17-3.17.04-6.35.15-9.52.1-2.99-.03-6.05.58-8.94,1.29-6.02,1.04-12.04.8-18.1-.37-9.28.35-18.49,2.43-27.56.75-3.28,4.08-6.17,6.81-6.01,3.94.24,6.46,2.98,7.11,7.03,1.66,10.22.51,20.37-.45,30.54-.38,4.02-.48,8.07-.78,12.1-.4,5.39-.6,10.79-2.28,16.02-.83,2.57-.18,3.26,2.46,2.85,7.36-1.13,14.61-2.65,21.46-5.77,3.56-1.62,7.18-1.53,10.81.04,3.74,1.62,4.76,5.73,1.86,8.57-1.27,1.24-2.87,2.33-4.52,2.97-4.37,1.69-8.86,3.06-13.28,4.62-4.17,1.47-8.25,3.24-12.48,4.49-3.66,1.08-7.44,2.12-11.36,1.17h0Z" style="fill: #fff; stroke-width: 0px;"></path>
        <path d="m139.14,160.14c2.77,6.97,3.12,13.72,4.61,20.21.37,1.63-.46,2.9-2.26,2.91-2.53.02-5.13.12-7.56-.44-1.14-.26-2.28-1.84-2.83-3.08-2.18-4.9-2.04-10.13-1.8-15.37.37-8.23-.94-16.33-1.97-24.46-.77-6.06-1.38-12.14-2.04-18.21-.07-.64-.02-1.31.06-1.95.36-2.79,1.61-4.49,3.39-4.65,2.4-.22,5.41,1.56,5.93,3.9.93,4.23,1.54,8.53,2.34,12.8.17.89.57,1.73.86,2.6.87-.49,1.88-.83,2.59-1.49,4.73-4.43,9.58-8.67,16.03-10.47,3.02-.84,5.39,1.28,5.43,4.43.06,4.89-3.32,7.21-6.68,9.58-2.76,1.94-5.64,3.71-8.39,5.66-.78.55-1.39,1.37-1.97,2.16-1.04,1.44-1.02,2.66.33,4.13,4.29,4.68,9.58,7.95,14.78,11.44,6.26,4.21,13.09,7.21,19.85,10.42,3.4,1.62,4.12,3.41,2.92,6.96-.49,1.45-2.62,2.88-4.86,2.54-3.51-.54-7.32-.86-10.34-2.5-8.81-4.77-17.46-9.89-25.41-16.05-.7-.54-1.76-.63-2.99-1.04h0Z" style="fill: #fff; stroke-width: 0px;"></path>
        <path d="m78.64,150.05c2.42-.25,4.73-.29,6.96-.75,2.92-.61,5.79-1.5,8.67-2.33,2.38-.69,4.71-.4,6.86.64.84.41,1.81,1.56,1.85,2.43.1,1.86-.16,3.86-2.16,4.89-.87.45-1.78.84-2.71,1.1-5.63,1.63-11.28,3.2-16.9,4.83-1.37.4-2.87.68-3.99,1.47-1.01.71-2.03,1.95-2.25,3.11-.56,2.99-.87,6.06-.93,9.11-.07,3.55,2.18,5.57,5.64,4.86,3.39-.7,6.74-1.82,9.96-3.11,2.77-1.1,5.32-2.75,8.02-4.06,3.27-1.58,6.24-.21,9.11,1.21,1.12.56,1.01,2.98-.34,3.93-7.38,5.21-14.26,11.31-23.36,13.54-6.91,1.7-16.35-2.66-19.1-9.06-1.57-3.65-1.08-7.61-.36-11.38,2.03-10.7,4.26-21.36,6.41-32.04.05-.25.14-.51.14-.77-.06-6.06,4.34-8.36,9-9.79,4.63-1.42,9.52-1.98,14.29-2.92,1.53-.3,3.05-.63,4.59-.87,1.15-.19,2.34-.48,3.46-.35,4.08.49,5.12,2.39,4.6,6.46-.56,4.44-3,6.5-7.16,7.17-1.79.29-3.52,1.01-5.32,1.27-2.82.41-5.66.76-8.5.81-2.79.05-3.48.53-4.13,3.23-.56,2.31-1.43,4.55-2.34,7.36h0Z" style="fill: #fff; stroke-width: 0px;"></path>
        <path d="m132.41,100.05c-2.72-.82-5.68-1.21-8.08-2.59-2.04-1.17-3.61-3.35-5.04-5.34-.62-.86-.64-2.41-.45-3.56,1.05-6.53,2.32-13,6.98-18.15.21-.24.38-.55.48-.85,1.88-5.98,6.65-9.17,11.76-11.9,4-2.14,8.03-4.35,12.29-5.84,2.34-.81,4.84.66,6.8,2.44,3.08,2.8,6.02,5.81,9.38,8.23,3.26,2.34,5.66,5.16,7.06,8.85.37.98.42,2.16.32,3.22-.72,7.9-5.3,13.53-11,18.47-1.47,1.28-3,2.5-4.54,3.71-2.37,1.86-4.96,3-8.08,2.99-1.94,0-3.91.23-5.8.66-4.09.94-8.03.15-12.08-.36h0Zm4.84-10.26c.59.04,1.43.08,2.27.16,3.69.38,7.01-1.03,10.43-2.03,5.21-1.51,8.67-5.2,11.59-9.39.8-1.14,1.23-3.54.57-4.51-2.34-3.47-5.73-5.51-10.16-5.61-2.01-.05-4.03-.59-6-1.1-1.52-.39-2.79-.88-3.74,1.03-.56,1.13-1.68,1.97-2.48,3-2.26,2.92-4.73,5.72-6.67,8.84-2.83,4.55-2.01,7.51,2.05,9.08.6.23,1.26.32,2.15.54h0Z" style="fill: #fff; stroke-width: 0px;"></path>
      </g>
    </g>
  </g>
</svg><style>@media (prefers-color-scheme: light) { :root { filter: none; } }
@media (prefers-color-scheme: dark) { :root { filter: none; } }
</style></svg>