<svg xmlns="http://www.w3.org/2000/svg" version="1.1" xmlns:xlink="http://www.w3.org/1999/xlink" width="1000" height="1000"><g clip-path="url(#SvgjsClipPath1038)"><rect width="1000" height="1000" fill="#ffffff"></rect><g transform="matrix(2.680533962365303,0,0,2.680533962365303,0,0)"><svg xmlns="http://www.w3.org/2000/svg" version="1.1" xmlns:xlink="http://www.w3.org/1999/xlink" width="373.06" height="373.06"><svg id="Layer_2" data-name="Layer 2" xmlns="http://www.w3.org/2000/svg" viewBox="0 0 373.06 373.06">
  <g id="Layer_2-2" data-name="Layer 2">
    <path id="Rectangle_7" data-name="Rectangle 7" d="m219.23,2.92h0c101.41,18.06,168.97,114.91,150.91,216.31h0c-18.06,101.41-114.91,168.97-216.31,150.91h0C52.43,352.08-15.14,255.24,2.92,153.83h0C20.98,52.43,117.83-15.14,219.23,2.92Z" style="fill: #1750ac; stroke-width: 0px;"></path>
    <g>
      <path d="m107.43,184.38c-3.18-.78-6.38-1.49-9.54-2.36-4.47-1.23-7.23-5.1-6.93-10.14.22-3.68,1.19-7.32,1.39-11.01.28-5.14.06-10.29.24-15.43.16-4.84-.06-9.81.94-14.49,2.09-9.76,1.68-19.51,1.29-29.33-.6-15.05.57-29.97,3.95-44.67,1.22-5.31,6.61-10,11.04-9.74,6.39.38,10.46,4.84,11.53,11.39,2.7,16.57.83,33.02-.73,49.5-.62,6.52-.78,13.08-1.26,19.62-.65,8.73-.97,17.5-3.7,25.96-1.34,4.17-.29,5.28,3.98,4.62,11.93-1.84,23.69-4.3,34.78-9.35,5.76-2.62,11.65-2.49,17.53.06,6.07,2.62,7.72,9.28,3.01,13.89-2.06,2.01-4.65,3.77-7.33,4.81-7.08,2.74-14.36,4.96-21.52,7.49-6.76,2.39-13.37,5.26-20.24,7.28-5.93,1.74-12.06,3.44-18.42,1.9h0Z" style="fill: #fff; stroke-width: 0px;"></path>
      <path d="m225.54,259.6c4.49,11.3,5.05,22.24,7.47,32.76.61,2.64-.74,4.69-3.66,4.71-4.1.02-8.32.2-12.25-.71-1.84-.42-3.7-2.98-4.59-4.99-3.53-7.95-3.31-16.42-2.92-24.92.61-13.34-1.52-26.48-3.19-39.66-1.25-9.82-2.24-19.68-3.31-29.52-.11-1.04-.03-2.12.1-3.16.58-4.53,2.62-7.28,5.5-7.55,3.88-.35,8.77,2.52,9.61,6.33,1.51,6.86,2.49,13.83,3.79,20.75.27,1.44.92,2.81,1.4,4.21,1.41-.79,3.05-1.34,4.19-2.42,7.68-7.19,15.52-14.06,25.98-16.97,4.89-1.36,8.74,2.07,8.8,7.18.1,7.93-5.38,11.69-10.84,15.53-4.47,3.15-9.14,6.02-13.61,9.17-1.26.89-2.26,2.23-3.19,3.5-1.69,2.33-1.65,4.31.53,6.7,6.95,7.58,15.52,12.88,23.95,18.55,10.15,6.83,21.22,11.69,32.17,16.88,5.51,2.62,6.68,5.52,4.73,11.29-.79,2.35-4.25,4.67-7.87,4.11-5.68-.87-11.86-1.4-16.76-4.05-14.28-7.73-28.3-16.03-41.2-26.02-1.14-.88-2.85-1.02-4.85-1.69h.01Z" style="fill: #fff; stroke-width: 0px;"></path>
      <path d="m127.49,243.24c3.92-.4,7.67-.48,11.29-1.22,4.74-.98,9.39-2.44,14.05-3.78,3.86-1.11,7.64-.65,11.11,1.04,1.37.67,2.93,2.54,3,3.94.16,3.01-.26,6.25-3.5,7.93-1.41.73-2.89,1.36-4.4,1.79-9.12,2.64-18.28,5.18-27.4,7.82-2.22.64-4.65,1.1-6.47,2.38-1.64,1.15-3.3,3.17-3.66,5.05-.91,4.85-1.41,9.83-1.51,14.77-.11,5.75,3.53,9.04,9.15,7.89,5.5-1.13,10.92-2.96,16.15-5.04,4.49-1.79,8.63-4.46,13-6.58,5.29-2.57,10.12-.34,14.76,1.96,1.81.9,1.64,4.83-.55,6.37-11.96,8.45-23.12,18.33-37.87,21.95-11.21,2.75-26.51-4.31-30.96-14.68-2.54-5.92-1.75-12.34-.59-18.45,3.28-17.35,6.91-34.63,10.4-51.93.08-.41.23-.83.23-1.25-.09-9.83,7.03-13.55,14.59-15.87,7.5-2.31,15.43-3.21,23.17-4.73,2.48-.49,4.95-1.02,7.43-1.42,1.86-.3,3.79-.78,5.61-.57,6.62.79,8.3,3.87,7.45,10.47-.91,7.19-4.87,10.53-11.61,11.63-2.91.47-5.71,1.63-8.62,2.05-4.57.66-9.17,1.23-13.77,1.31-4.52.09-5.64.86-6.7,5.24-.91,3.74-2.32,7.37-3.8,11.93h0Z" style="fill: #fff; stroke-width: 0px;"></path>
      <path d="m214.65,162.19c-4.41-1.33-9.21-1.96-13.1-4.19-3.31-1.9-5.86-5.43-8.17-8.65-1-1.4-1.04-3.9-.73-5.78,1.7-10.58,3.75-21.07,11.32-29.42.35-.38.61-.88.77-1.38,3.05-9.7,10.78-14.86,19.07-19.29,6.49-3.47,13.02-7.05,19.93-9.46,3.8-1.32,7.85,1.06,11.03,3.96,4.99,4.54,9.75,9.42,15.2,13.33,5.29,3.8,9.18,8.37,11.44,14.34.6,1.58.67,3.5.52,5.22-1.16,12.81-8.6,21.93-17.83,29.94-2.39,2.08-4.87,4.06-7.36,6.02-3.84,3.01-8.04,4.87-13.09,4.85-3.14,0-6.34.37-9.4,1.08-6.62,1.53-13.02.24-19.58-.58h0Zm7.84-16.64c.95.06,2.32.12,3.68.26,5.98.61,11.36-1.68,16.91-3.29,8.44-2.45,14.05-8.43,18.79-15.22,1.29-1.85,1.99-5.74.92-7.31-3.8-5.62-9.28-8.92-16.47-9.1-3.26-.08-6.54-.96-9.73-1.78-2.47-.64-4.52-1.43-6.07,1.67-.91,1.83-2.72,3.19-4.02,4.86-3.67,4.73-7.67,9.27-10.82,14.33-4.59,7.37-3.26,12.18,3.32,14.72.98.38,2.04.52,3.48.87h0Z" style="fill: #fff; stroke-width: 0px;"></path>
    </g>
  </g>
</svg></svg></g></g><defs><clipPath id="SvgjsClipPath1038"><rect width="1000" height="1000" x="0" y="0" rx="500" ry="500"></rect></clipPath></defs></svg>