<?xml version="1.0" encoding="UTF-8"?>
<svg id="Layer_2" data-name="Layer 2" xmlns="http://www.w3.org/2000/svg" viewBox="0 0 978.49 597.1">
  <g id="Layer_1-2" data-name="Layer 1">
    <g>
      <path d="m221.11,182.5c-.79-14.7-4.02-19.67-17.97-23.66-7.92-2.27-16.22-3.68-24.44-4.28-21.39-1.54-43-1.56-63.42-9.29-5.89-2.23-12.02-4.82-16.83-8.74-13.88-11.31-11.62-26.46.28-35.74,12.99-10.12,23.55-22.19,34.85-33.84,8.74-9.02,20.02-15.64,30.41-22.98,14.83-10.48,30.16-20.27,44.73-31.1,10.03-7.46,21.75-9.47,33.16-12.8.36-.1.78-.07,1.16-.03,11.15,1.36,11.14,4.09,6.14,11.25-2.72,3.89-6.52,7.01-9.84,10.47-8.16,8.5-16.21,17.12-24.55,25.44-3.09,3.08-6.54,6.27-10.45,8-13.94,6.18-23.44,17.44-33.67,27.95-5.27,5.41-10.32,11.16-16.24,15.77-4.42,3.44-10.13,5.21-15.16,7.91-1.98,1.06-5.36,2.82-5.22,3.89.37,2.93,1.6,6.52,3.77,8.25,2.13,1.7,5.88,2.12,8.84,1.89,15.3-1.16,29.9,2.58,44.62,5.72,11.87,2.53,24.41,3.32,35.52,7.74,20.6,8.2,34.74,22.69,31.5,47.55-2.55,19.56-11.14,36.59-24.43,51.06-6.66,7.25-13.72,14.24-21.34,20.43-7.33,5.96-15.73,10.58-23.44,16.09-7.71,5.51-14.76,12.03-22.79,16.98-9.49,5.85-19.22,12.11-29.72,15.36-23.21,7.18-42.59,19.94-59.99,36.28-11.27,10.58-22.47,21.26-33.51,32.09-10.26,10.07-22.12,9.75-34.56,5.76-5.81-1.86-10.25-9.67-7.81-14.97,2.78-6.03,6.41-11.85,10.61-16.99,8.5-10.42,21.55-15,31.65-23.24,19.78-16.16,44.44-23.45,65.24-37.61,14.7-10.01,29.7-19.59,44.51-29.45,12.52-8.34,25.43-16.19,37.29-25.38,12.15-9.42,22.02-21.25,28.83-35.22,1.53-3.15,1.57-7.02,2.3-10.56Z" style="fill: #fff; stroke-width: 0px;"/>
      <path d="m580.72,145.9c.89-22.04,1.62-44.1,2.81-66.13.26-4.73,2.27-9.34,3.33-14.04,1.09-4.86,2.19-9.72,2.95-14.64,1.18-7.58,6.73-10.89,12.86-13.6,10.11-4.48,20.62-4.28,31.34-2.72,16.79,2.44,34.26,3.5,48.9,12.54,11.01,6.8,20.45,16.3,30.03,25.2,17.1,15.89,27.39,35.81,32.66,58.4,4.16,17.82,2.82,35.72.5,53.61-.25,1.91-.6,3.82-.66,5.75-.4,12.29-8.17,22.96-19.5,27.72-28.2,11.85-57.82,19.38-86.88,28.6-11.9,3.77-24.34,4.09-36.7,1.31-8.64-1.95-12.38-5.59-13.77-14.86-4.33-28.87-9.35-57.7-7.87-87.14Zm40,24.8c.27.01.53.02.8.04,0,4.45-.17,8.92.05,13.36.22,4.43.18,9.03,1.37,13.23,4.28,15.09,4.43,15.92,18.58,11.61,9.79-2.98,19.61-5.95,29.24-9.41,10.71-3.86,21.29-8.13,31.81-12.49,9.19-3.81,12.83-10.93,13.67-20.9,2.01-23.87-5.36-45.47-14.59-66.7-1.73-3.97-4.74-7.54-7.71-10.78-12.35-13.45-28.86-19.27-45.95-22.84-15.56-3.26-16.58-1.84-20.19,13.52-.4,1.69-.96,3.38-1.08,5.1-2.03,28.76-4.01,57.52-5.99,86.28Z" style="fill: #fff; stroke-width: 0px;"/>
      <path d="m310.6,264.22c1.55-14.55,3.79-26.43,3.86-38.32.11-20.08-1.55-40.16-1.72-60.24-.11-13.31,1.3-26.62,1.65-39.94.28-10.42-1.81-12.14-12.33-11.46-5.6.36-11.19.9-16.79,1.08-4.24.13-7.13-1.51-8.57-6.12-1.54-4.95-4.45-9.45-6.23-14.34-4.29-11.71-1.86-19.18,8.92-25.58,5.59-3.32,11.79-5.76,17.92-8.03,23.37-8.65,46.47-18.31,70.38-25.13,16.71-4.77,34.52-5.95,51.93-7.93,12.01-1.37,20.51,10.83,23.13,22.17,2.17,9.42.73,11.18-8.21,14.88-17.32,7.17-34.75,14.1-51.79,21.9-27.42,12.55-33.72,26.39-30.83,58.55,3.62,40.23,10.33,80.21,8.65,120.84-.71,17.23-13.41,32.21-30.34,34.31-6.15.76-11.81-1.97-13.09-7.12-2.6-10.52-4.71-21.17-6.54-29.52Z" style="fill: #fff; stroke-width: 0px;"/>
      <path d="m278.62,597.03c-5.99-.39-11.99-.64-17.96-1.19-8.45-.79-14.68-6.88-15.75-16.05-.78-6.71-.21-13.58-1.03-20.29-1.14-9.35-3.19-18.58-4.53-27.9-1.27-8.78-3.25-17.66-2.95-26.43.63-18.26-3.23-35.72-7.09-53.3-5.92-26.94-8.59-54.22-7.23-81.81.49-9.97,8.7-20.15,16.77-21.1,11.64-1.36,20.42,5.36,24.45,16.84,10.18,29.01,12.09,59.26,14.58,89.48.98,11.95,2.79,23.83,4.02,35.77,1.64,15.95,3.87,31.86,1.67,48-1.08,7.94,1.18,9.62,8.66,7.06,20.92-7.14,41.33-15.36,59.71-28.02,9.55-6.58,20.2-8.22,31.62-5.52,11.78,2.78,16.9,14.26,9.89,24.08-3.07,4.29-7.18,8.29-11.67,11.02-11.89,7.21-24.3,13.56-36.4,20.42-11.42,6.48-22.42,13.77-34.15,19.62-10.14,5.05-20.63,10.08-32.6,9.34Z" style="fill: #fff; stroke-width: 0px;"/>
      <path d="m741.54,407.92c11.72,18.93,16.25,38.48,23.99,56.66,1.94,4.56.17,8.7-5.09,9.67-7.38,1.36-14.94,3.03-22.32,2.65-3.46-.17-7.62-4.19-9.88-7.53-8.92-13.2-11.24-28.54-13.27-43.99-3.19-24.25-11.25-47.25-18.49-70.47-5.4-17.31-10.36-34.76-15.44-52.16-.54-1.84-.73-3.81-.83-5.73-.41-8.35,2.38-13.97,7.49-15.37,6.89-1.88,16.63,1.73,19.35,8.32,4.92,11.89,8.94,24.14,13.49,36.19.95,2.51,2.56,4.77,3.87,7.14,2.28-1.88,5.06-3.4,6.78-5.7,11.53-15.42,23.47-30.33,41.39-38.94,8.38-4.03,16.42.93,18.17,10.12,2.73,14.27-5.94,22.81-14.55,31.48-7.05,7.11-14.54,13.79-21.59,20.9-1.99,2.01-3.36,4.74-4.62,7.33-2.3,4.74-1.6,8.3,3.11,11.9,14.96,11.44,32.12,18.24,49.14,25.75,20.49,9.05,42.01,14.26,63.42,20.11,10.78,2.95,13.82,7.81,12.16,18.83-.67,4.49-6.16,9.78-12.87,9.94-10.53.25-21.83,1.29-31.51-1.92-28.23-9.36-56.16-19.81-82.63-33.68-2.33-1.22-5.46-.92-9.29-1.49Z" style="fill: #fff; stroke-width: 0px;"/>
      <path d="m614.62,409.91c6.94-1.98,13.68-3.32,19.96-5.83,8.23-3.29,16.14-7.41,24.11-11.33,6.61-3.25,13.57-3.62,20.37-1.7,2.68.76,6.1,3.63,6.68,6.13,1.26,5.38,1.54,11.36-3.76,15.42-2.3,1.76-4.77,3.37-7.36,4.64-15.6,7.69-31.29,15.21-46.89,22.9-3.79,1.87-8.03,3.48-10.9,6.37-2.58,2.6-4.93,6.77-4.97,10.27-.09,9.04.61,18.17,2.02,27.11,1.65,10.41,9.26,15.16,19.02,11.28,9.56-3.8,18.74-8.84,27.5-14.28,7.52-4.67,14.12-10.81,21.32-16.03,8.72-6.33,18.14-3.87,27.25-1.2,3.56,1.04,4.5,8.18,1.06,11.66-18.84,19.08-35.8,40.47-61.23,51.74-19.32,8.56-49.18.74-60.53-16.53-6.48-9.86-7.12-21.69-6.99-33.07.35-32.33,1.34-64.65,2.07-96.97.02-.77.15-1.57.01-2.32-3.32-17.69,8.33-26.68,21.21-33.29,12.78-6.57,26.79-10.74,40.26-15.96,4.31-1.67,8.59-3.42,12.95-4.94,3.26-1.14,6.58-2.63,9.94-2.83,12.18-.7,16.2,4.32,16.8,16.48.66,13.26-5.4,20.55-17.19,24.69-5.09,1.79-9.77,4.78-14.89,6.47-8.02,2.65-16.14,5.16-24.41,6.79-8.13,1.61-9.89,3.36-10.4,11.6-.44,7.04-1.82,14.03-3.02,22.72Z" style="fill: #fff; stroke-width: 0px;"/>
      <path d="m447.93,531.22c-8.37-.98-17.24-.58-24.97-3.35-6.58-2.36-12.3-7.91-17.51-12.97-2.26-2.2-3.13-6.7-3.18-10.18-.33-19.62,0-39.2,10.96-56.68.5-.8.82-1.79.95-2.73,2.38-18.47,14.67-30.25,28.19-40.9,10.58-8.34,21.21-16.9,32.89-23.46,6.42-3.6,14.49-.6,21.15,3.6,10.45,6.59,20.61,13.86,31.69,19.16,10.76,5.15,19.23,12.14,25.23,22.18,1.59,2.66,2.34,6.09,2.61,9.24,2.02,23.46-8.46,42.3-22.53,59.71-3.64,4.51-7.47,8.88-11.33,13.21-5.95,6.66-12.94,11.36-22.05,12.95-5.66.99-11.31,2.71-16.6,4.96-11.45,4.88-23.39,4.62-35.49,5.25Zm8.8-32.51c1.74-.19,4.22-.52,6.72-.71,10.97-.82,19.94-6.67,29.44-11.36,14.44-7.12,22.62-19.7,28.98-33.48,1.73-3.75,1.74-10.98-.69-13.48-8.65-8.92-19.6-13.11-32.61-11.12-5.91.9-12.1.37-18.12-.09-4.65-.36-8.61-1.13-10.4,4.96-1.05,3.59-3.88,6.63-5.68,10.05-5.1,9.71-10.86,19.17-14.9,29.3-5.9,14.76-1.96,23,10.71,25.48,1.88.37,3.85.28,6.55.45Z" style="fill: #fff; stroke-width: 0px;"/>
      <path d="m476.23,139.67c1.8,22.71,3.49,45.44,5.54,68.13.26,2.89,1.73,6.77,3.92,8.16,4.12,2.62,13.14.43,15.72-4.03,3.91-6.77,8.59-14.03,9.42-21.47,2.69-24.15,3.81-48.47,5.41-72.73.21-3.25-.31-6.55-.52-9.83-.43-6.6,2.45-12.15,8.7-13.21,8.08-1.37,16.49-2.46,24.05,2.95,4.15,2.96,6.59,6.57,6.3,11.64-.8,13.89-1.58,27.78-2.71,41.64-1.01,12.3-2.06,24.63-3.87,36.83-1.84,12.39-3.52,24.99-7.34,36.83-3.09,9.58-8.13,19.02-14.31,26.98-8.38,10.78-20.42,13.73-33.93,10.27-23.41-6.01-34.86-22.59-40.5-44.7-6.99-27.45-7.23-55.49-7.9-83.52-.16-6.76-.95-13.51-1.12-20.28-.22-8.81,7.3-16.34,16.3-16.66,18.16-.64,19.91,1.4,18.68,19.68-.52,7.71-.09,15.48-.09,23.22-.58.04-1.16.08-1.75.12Z" style="fill: #fff; stroke-width: 0px;"/>
      <path d="m898.03,55.61c28.36-.1,52.06,9.73,72.08,27.93,10.25,9.32,9.61,21.84,5.89,34.03-4.82,15.78-16.43,26.89-27.69,38.05-11.86,11.76-26.43,19.36-42.65,22.13-18,3.08-35.69.42-50.14-11.99-9.47-8.13-12.77-18.73-11.11-31.69,3.13-24.25,13.68-45.14,26.28-65.45,6.71-10.81,16.53-13.75,27.33-13.02Zm21.39,34.1c0,.12-.02.24-.03.35-3.68,0-7.39-.28-11.04.1-2.15.22-4.92.88-6.18,2.37-10.76,12.81-15.71,28.58-21.68,43.81-.47,1.19-.19,2.69-.17,4.05.08,6.08,2.34,8.2,7.87,6.18,11.73-4.29,23.93-7.06,34.63-14.45,12.38-8.55,16.88-20.55,19.04-34.24.66-4.17-1.22-6.66-5.68-6.94-5.59-.35-11.18-.82-16.77-1.24Z" style="fill: #fff; stroke-width: 0px;"/>
      <path d="m809.72,192.24c.08,15.23-6.61,16.91-19.85,22.39-1.82.75-5.86-.54-7.05-2.19-3.06-4.26-6.32-9.01-7.35-14.01-6.76-33.07-13.06-66.24-19.28-99.42-2.45-13.07-4.37-26.25-6.28-39.42-.23-1.57.64-3.76,1.75-4.99,5.99-6.63,13.82-9.27,22.1-6.41,7.37,2.55,10.11,9.6,11.35,17.02,4.66,27.77,9.15,55.57,14.15,83.27,1.47,8.12,4.6,15.93,6.58,23.98,1.6,6.51,2.61,13.16,3.88,19.75Z" style="fill: #fff; stroke-width: 0px;"/>
    </g>
  </g>
</svg>