<?xml version="1.0" encoding="UTF-8"?>
<svg id="Layer_2" data-name="Layer 2" xmlns="http://www.w3.org/2000/svg" xmlns:xlink="http://www.w3.org/1999/xlink" viewBox="0 0 154.99 58.51">
  <defs>
    <clipPath id="clippath">
      <rect width="154.99" height="58.51" style="fill: none; stroke-width: 0px;"/>
    </clipPath>
  </defs>
  <g id="Layer_1-2" data-name="Layer 1">
    <g id="Group_16" data-name="Group 16">
      <g style="clip-path: url(#clippath);">
        <g id="Group_16-2" data-name="Group 16-2">
          <path id="Path_1" data-name="Path 1" d="m124.33,26.61c-3.99.86-7.95,1.84-11.96,2.57-9.95,1.82-19.89,3.73-29.9,5.22-8.9,1.32-3.22.8-12.19,1.32-11.58.67-23.2.62-34.81.83-4.88.09-9.76.15-14.63,0-1.99-.02-3.97-.43-5.81-1.19-1.06-.47-1.61-2.06-2.39-3.14,1.25-.84,2.44-2.24,3.77-2.4,3.12-.28,6.25-.34,9.37-.16,16.31.43,32.63-.4,48.81-2.49,13.86-1.79,12.93-2.94,26.72-5.31,1.36-.06,2.69-.42,3.89-1.07-1.63-.53-3.27-1.04-4.89-1.58-3.32-1.1-14.46-8.87-17.51-10.47-1.1-.58-1.7-3.19-1.5-4.74.11-.84,2.54-2.17,3.68-1.95,8.34,1.55,24.2,11.04,32.59,11.99,6.54.73,13.26,1.87,19.97-1.08,3.45-1.51,7.88-1.07,11.85-.91,1.25.05,2.97,1.88,3.46,3.26.29,1.5-.14,3.05-1.16,4.19-6.75,6.51-14.46,11.93-22.87,16.08-10.17,5.15-20.06,10.84-30.13,16.18-3.01,1.54-6.12,2.88-9.3,4.03-1.37.52-3.14.99-4.4.55-1.69-.59-3.64-1.82-4.37-3.31-.44-.89.86-3.45,2.05-4.16,3.96-2.38,8.2-4.27,12.35-6.33,7.17-3.57,14.37-7.1,21.51-10.73,2.73-1.39,5.35-3,8.02-4.51l-.23-.69" style="fill: #fff; stroke: #fff; stroke-width: 4px;"/>
        </g>
      </g>
    </g>
  </g>
</svg>